<svg xmlns="http://www.w3.org/2000/svg" width="72" height="72" viewBox="0 0 72 72"><g transform="translate(-536 -490)"><rect width="72" height="72" rx="10" transform="translate(536 490)" fill="#f1f9fe"/><g transform="translate(314 14735)"><rect width="38" height="38" transform="translate(240 -14228)" fill="none"/><g transform="translate(-225 -14368)"><path d="M488.217,177.565H470.478A1.478,1.478,0,0,1,469,176.087V149.478A1.478,1.478,0,0,1,470.478,148h2.957" transform="translate(0 -1.565)" fill="none" stroke="#3a77ff" stroke-miterlimit="10" stroke-width="1.6"/><path d="M499,148h2.956a1.478,1.478,0,0,1,1.478,1.478v8.13" transform="translate(-7.826 -1.565)" fill="none" stroke="#3a77ff" stroke-miterlimit="10" stroke-width="1.6"/><path d="M489.261,175.652H473V152h1.478" transform="translate(-1.044 -2.609)" fill="none" stroke="#3a77ff" stroke-miterlimit="10" stroke-width="1.6"/><path d="M499,152h1.478v6.652" transform="translate(-7.826 -2.609)" fill="none" stroke="#3a77ff" stroke-miterlimit="10" stroke-width="1.6"/><path d="M489.565,144.957h-2.217a2.957,2.957,0,1,0-5.913,0h-2.217A2.217,2.217,0,0,0,477,147.174v2.217h14.783v-2.217A2.217,2.217,0,0,0,489.565,144.957Z" transform="translate(-2.087 0)" fill="none" stroke="#3a77ff" stroke-miterlimit="10" stroke-width="1.6"/><ellipse cx="5.473" cy="4.926" rx="5.473" ry="4.926" transform="translate(488.033 158.26)" fill="none" stroke="#3a77ff" stroke-linejoin="round" stroke-width="1.6"/><path d="M503.913,177v8.13l-2.957-2.957L498,185.13V177" transform="translate(-7.565 -9.13)" fill="none" stroke="#3a77ff" stroke-linejoin="round" stroke-width="1.6"/><path d="M478,160.217l1.478,1.478,2.957-3.7" transform="translate(-2.348 -4.174)" fill="none" stroke="#3a77ff" stroke-linecap="round" stroke-linejoin="round" stroke-width="1.6"/><path d="M478,168.217l1.478,1.478,2.957-3.7" transform="translate(-2.348 -6.261)" fill="none" stroke="#3a77ff" stroke-linecap="round" stroke-linejoin="round" stroke-width="1.6"/><path d="M478,176.217l1.478,1.478,2.957-3.7" transform="translate(-2.348 -8.348)" fill="none" stroke="#3a77ff" stroke-linecap="round" stroke-linejoin="round" stroke-width="1.6"/><line x2="4.378" transform="translate(483.107 156.071)" fill="none" stroke="#3a77ff" stroke-linecap="round" stroke-linejoin="round" stroke-width="1.6"/><line x2="2.189" transform="translate(483.107 161.544)" fill="none" stroke="#3a77ff" stroke-linecap="round" stroke-linejoin="round" stroke-width="1.6"/><line x2="2.189" transform="translate(483.107 167.017)" fill="none" stroke="#3a77ff" stroke-linecap="round" stroke-linejoin="round" stroke-width="1.6"/></g></g></g></svg>