<svg xmlns="http://www.w3.org/2000/svg" width="72" height="72" viewBox="0 0 72 72"><g transform="translate(-1184 -498)"><rect width="72" height="72" rx="10" transform="translate(1184 498)" fill="#ffecdc"/><path fill="none" d="M1202 516h36v36h-36z"/><path fill="none" d="M1202.544 516.545h34.911v34.909h-34.911z"/><path d="M1220 544.99a10.99 10.99 0 1 1 10.99-10.99 11 11 0 0 1-10.99 10.99m-5.352-3.48-.154.463.329.214a9.637 9.637 0 0 0 10.523-.1l.451-.3-3.462-4.426-.378.215a3.93 3.93 0 0 1-3.673.126l-.355-.172Zm-3.978-10.12a9.654 9.654 0 0 0 2.286 9.256l.392.411 3.577-4.35-.236-.316a3.932 3.932 0 0 1-.73-2.969l.063-.391-5.2-2.188Zm13.3 1.635.065.392a3.842 3.842 0 0 1-.566 2.727l-.194.3 3.5 4.482.4-.44a9.557 9.557 0 0 0 2.149-9.107l-.155-.546Zm-3.969-1.826a2.8 2.8 0 1 0 2.8 2.8 2.8 2.8 0 0 0-2.8-2.8m-1.215-6.813a9.748 9.748 0 0 0-7.17 4.771l-.284.494 5.193 2.186.236-.31a4.094 4.094 0 0 1 2.215-1.475l.376-.1v-5.642Zm1.86 5.57.376.1a4.121 4.121 0 0 1 2.222 1.47l.236.307 5.193-2.185-.286-.494a9.761 9.761 0 0 0-7.178-4.768l-.562-.076Z" fill="#ff6c3f" stroke="#ff6c3f" stroke-width=".8"/><path d="M1219.998 550.737a16.737 16.737 0 1 1 16.737-16.736 16.756 16.756 0 0 1-16.737 16.736m0-32.017a15.28 15.28 0 1 0 15.28 15.281 15.3 15.3 0 0 0-15.28-15.281" fill="#ff6c3f" stroke="#ff6c3f" stroke-width=".8"/></g></svg>