<svg xmlns="http://www.w3.org/2000/svg" width="72" height="72" viewBox="0 0 72 72"><g transform="translate(-536 -490)"><rect width="72" height="72" rx="10" transform="translate(536 490)" fill="#fdf2f2"/><path fill="none" d="M552 506h40v40h-40z"/><g fill="#ff2800" stroke="#ff2800"><path d="M562.966 513.368a1.062 1.062 0 0 0-.48.113 7.3 7.3 0 0 0-3.436 4.8 1.1 1.1 0 0 0-.956-.562h-3.554a2.54 2.54 0 0 0-2.54 2.543v.076a2.54 2.54 0 0 0 2.154 2.51l2.013.31-.588.823a3.628 3.628 0 0 0-.679 2.11v4.331a3.615 3.615 0 0 0 .918 2.413.728.728 0 0 0-.011.127v2.721a2.177 2.177 0 0 0 2.177 2.177h4.716a2.177 2.177 0 0 0 2.177-2.177v-.181a.726.726 0 0 0-1.451 0v.181a.726.726 0 0 1-.726.726h-4.713a.726.726 0 0 1-.726-.726v-1.862a3.62 3.62 0 0 0 1.27.228h10.885a.726.726 0 0 0 0-1.451h-10.885a2.177 2.177 0 0 1-2.177-2.177v-4.33a2.177 2.177 0 0 1 .406-1.265l.931-1.3a1.089 1.089 0 0 0-.72-1.709l-2.6-.4a1.088 1.088 0 0 1-.923-1.076v-.076a1.088 1.088 0 0 1 1.092-1.092h3.319a5.9 5.9 0 0 0 4.393 3.441l.045.006h7.121a.726.726 0 1 0 0-1.451h-7.028a4.373 4.373 0 0 1-2.409-1.366.724.724 0 0 0 .357-.527 6.1 6.1 0 0 1 2.722-4.457h14.52a.726.726 0 0 0 0-1.451Z" stroke-width=".2"/><path d="M558.889 524.675a.726.726 0 1 0-1.079.971l1.525 1.694a1.089 1.089 0 0 0 .809.36h3.83a.726.726 0 0 0 0-1.451h-3.668ZM564.337 529.514a.726.726 0 0 0 0 1.451h5.08a.726.726 0 0 0 0-1.451Z" stroke-width=".2"/><path d="M581.509 515.17a1.7 1.7 0 0 1 2.21-.008 33.189 33.189 0 0 0 2.982 2.2 13.505 13.505 0 0 0 3.683 1.786 2.181 2.181 0 0 1 1.616 2.106v8.505a5.484 5.484 0 0 1-1.209 3.255 12.759 12.759 0 0 1-2.616 2.512 27.474 27.474 0 0 1-4.948 2.849 1.494 1.494 0 0 1-1.215.006 26.631 26.631 0 0 1-4.956-2.81 12.5 12.5 0 0 1-2.617-2.517 5.56 5.56 0 0 1-1.212-3.294v-8.506a2.168 2.168 0 0 1 1.62-2.1 13.143 13.143 0 0 0 3.7-1.778 31.608 31.608 0 0 0 2.962-2.2Zm1.512 1.043a.624.624 0 0 0-.808 0 32.786 32.786 0 0 1-3.076 2.293 14.207 14.207 0 0 1-4.034 1.92.9.9 0 0 0-.7.824v8.506a4.183 4.183 0 0 0 .939 2.462 11.3 11.3 0 0 0 2.361 2.259 25.508 25.508 0 0 0 4.732 2.681.433.433 0 0 0 .355 0 26.335 26.335 0 0 0 4.736-2.72 11.549 11.549 0 0 0 2.364-2.26 4.11 4.11 0 0 0 .938-2.42v-8.504a.908.908 0 0 0-.705-.831 14.565 14.565 0 0 1-4.009-1.929 34.365 34.365 0 0 1-3.091-2.281Z" stroke-width=".3" fill-rule="evenodd"/><path d="M581.788 530.347a.4.4 0 0 1-.043 0 .769.769 0 0 1-.559-.291l-2.98-3.83a.785.785 0 0 1 .12-1.093.765.765 0 0 1 1.082.121l2.443 3.152 4.779-4.83a.764.764 0 0 1 1.088 0 .784.784 0 0 1 0 1.1l-5.387 5.444a.756.756 0 0 1-.543.227Z" stroke-width=".1"/></g></g></svg>