<svg xmlns="http://www.w3.org/2000/svg" width="72" height="72" viewBox="0 0 72 72"><g transform="translate(-2602 1375)"><rect width="72" height="72" rx="10" transform="translate(2602 -1375)" fill="#e7fcf5"/><g transform="translate(2380 12870)"><rect width="38" height="38" transform="translate(240 -14228)" fill="none"/><g transform="translate(242.304 -14227.174)"><path d="M166.913,230.957v4.13H157V226h7.435" transform="translate(-136.348 -212.783)" fill="none" stroke="#218385" stroke-miterlimit="10" stroke-width="1.8"/><rect width="9.913" height="9.087" transform="translate(20.652 27.261)" fill="none" stroke="#218385" stroke-miterlimit="10" stroke-width="1.8"/><path d="M160,230.13l2.478,2.478L168.261,226" transform="translate(-136.87 -212.783)" fill="none" stroke="#218385" stroke-miterlimit="10" stroke-width="1.8"/><path d="M166.913,214.957v4.13H157V210h7.435" transform="translate(-136.348 -210)" fill="none" stroke="#218385" stroke-miterlimit="10" stroke-width="1.8"/><path d="M160,214.13l2.478,2.478L168.261,210" transform="translate(-136.87 -210)" fill="none" stroke="#218385" stroke-miterlimit="10" stroke-width="1.8"/><path d="M150.174,241.87H136.957a2.478,2.478,0,0,1-2.478-2.478v-4.957a2.782,2.782,0,0,1,.139-1.034l.863-1.294a.826.826,0,0,0-.487-1.26l-2.167-.542a.826.826,0,0,1-.826-.826v-1.652a.826.826,0,0,1,.826-.826h3.688a.827.827,0,0,1,.687.368l1.092,1.639a5.59,5.59,0,0,0,2.793,1.3h9.087" transform="translate(-132 -212.957)" fill="none" stroke="#218385" stroke-miterlimit="10" stroke-width="1.8"/><path d="M151.415,221a53.825,53.825,0,0,0-8.164.687,3.272,3.272,0,0,0-1.749.965c-.38.45-2.365,4.714-2.365,4.714" transform="translate(-133.241 -211.913)" fill="none" stroke="#218385" stroke-miterlimit="10" stroke-width="1.8"/><path d="M138,235h0a5.64,5.64,0,0,0,3.989,1.652h1.793" transform="translate(-133.043 -214.348)" fill="none" stroke="#218385" stroke-miterlimit="10" stroke-width="1.8"/><path d="M136,244v3.3a.826.826,0,0,0,.826.826h5.783a.826.826,0,0,0,.826-.826v-2.478" transform="translate(-132.696 -215.913)" fill="none" stroke="#218385" stroke-miterlimit="10" stroke-width="1.8"/><line x1="7.435" transform="translate(10.739 25.609)" fill="none" stroke="#218385" stroke-miterlimit="10" stroke-width="1.8"/></g></g></g></svg>