<svg xmlns="http://www.w3.org/2000/svg" width="72" height="72" viewBox="0 0 72 72"><g transform="translate(-320 -498)"><rect width="72" height="72" rx="10" transform="translate(320 498)" fill="#eceff0"/><g fill="none"><path d="M337 515h38v38h-38z"/><g transform="translate(48 464)" stroke="#002f34" stroke-miterlimit="10" stroke-width="1.8"><path d="M323.374 68.4a4.767 4.767 0 0 0-.581-1.209L322 66l3.2-.8a.8.8 0 0 0 .8-.8v-1.6a.8.8 0 0 0-.8-.8h-4l-1.6 2.4-2.4.8h-18.4l-2.4-.8-1.6-2.4h-4a.8.8 0 0 0-.8.8v1.6a.8.8 0 0 0 .8.8l3.2.8-.794 1.191a4.8 4.8 0 0 0-.806 2.662V74.8a2.4 2.4 0 0 0 2.4 2.4h16"/><path d="M295.6 63.6s2.032-4.364 2.4-4.8a2.331 2.331 0 0 1 1.6-.8h16.8a2.331 2.331 0 0 1 1.6.8c.368.436 2.4 4.8 2.4 4.8M294.8 68.4l.429.429A4 4 0 0 0 298.057 70h2.343M293.2 76.4v3.2a.8.8 0 0 0 .8.8h5.6a.8.8 0 0 0 .8-.8v-2.4M310.8 73.2h-10.4"/><circle cx="2.4" cy="2.4" r="2.4" transform="translate(313.2 70.8)"/><path d="M322.8 82a2.4 2.4 0 0 1-2.4-2.4 2.4 2.4 0 0 1 2.4-2.4 2.4 2.4 0 0 1 2.4 2.4 2.4 2.4 0 0 1-2.4 2.4ZM314.8 82l8.8-11.2"/></g></g></g></svg>